<svg width="282" height="265" viewBox="0 0 282 265" fill="none" xmlns="http://www.w3.org/2000/svg">
<path d="M141.004 155.944C154.911 155.944 166.185 145.35 166.185 132.281C166.185 119.211 154.911 108.617 141.004 108.617C127.096 108.617 115.822 119.211 115.822 132.281C115.822 145.35 127.096 155.944 141.004 155.944Z" fill="#33373E"/>
<path fill-rule="evenodd" clip-rule="evenodd" d="M141.008 84.1678C174.818 84.1678 206.227 88.7268 229.909 96.3881C258.443 105.619 275.986 119.611 275.986 132.281C275.986 145.484 257.393 160.349 226.752 169.889C203.587 177.101 173.103 180.866 141.008 180.866C108.103 180.866 76.9433 177.332 53.5168 169.81C23.8781 160.29 6.02641 145.233 6.02641 132.281C6.02641 119.714 22.7768 105.83 50.9092 96.6131C74.6795 88.8253 106.864 84.1678 141.004 84.1678H141.008Z" stroke="#33373E" stroke-width="11.2354"/>
<path fill-rule="evenodd" clip-rule="evenodd" d="M96.4411 108.362C113.332 80.8396 133.225 57.549 152.119 42.098C174.882 23.4819 196.545 16.1913 208.225 22.5201C220.396 29.1158 224.81 51.6777 218.297 81.3863C213.378 103.848 201.615 130.543 185.582 156.67C169.143 183.457 150.319 207.057 131.683 222.364C108.101 241.736 85.3016 248.746 73.3625 242.276C61.7773 236.003 57.347 215.427 62.9047 187.921C67.6005 164.68 79.385 136.154 96.4356 108.362L96.4411 108.362Z" stroke="#33373E" stroke-width="11.2354"/>
<path fill-rule="evenodd" clip-rule="evenodd" d="M95.8803 156.35C78.9417 128.859 67.4092 101.026 62.5954 77.928C56.8007 50.0977 60.8977 28.8193 72.5663 22.4721C84.7258 15.857 107.731 23.5306 131.868 43.6703C150.117 58.8968 168.856 81.8011 184.937 107.903C201.423 134.664 213.779 161.776 218.586 184.593C224.668 213.467 219.745 235.529 207.817 242.018C196.244 248.314 175.065 241.648 152.481 223.386C133.4 207.956 112.986 184.116 95.8803 156.35Z" stroke="#33373E" stroke-width="11.2354"/>
</svg>
